<?xml version="1.0" encoding="utf-8"?>
<!-- Generator: Adobe Illustrator 19.0.0, SVG Export Plug-In . SVG Version: 6.00 Build 0)  -->
<svg version="1.1" xmlns="http://www.w3.org/2000/svg" xmlns:xlink="http://www.w3.org/1999/xlink" x="0px" y="0px"
	 viewBox="0 -85 800 400" style="enable-background:new 0 -85 800 400;" xml:space="preserve">
<style type="text/css">
	.st0{fill:#F9A910;}
	.st1{fill:#F997C3;}
	.st2{fill:#3897C3;}
	.st3{fill:none;stroke:#F930D0;stroke-width:7;stroke-linecap:round;stroke-miterlimit:10;stroke-dasharray:3,6;}
	.st4{fill:none;stroke:#000000;stroke-width:2;stroke-linecap:round;stroke-miterlimit:10;}
	.st5{fill:none;stroke:#000000;stroke-width:2;stroke-linecap:round;stroke-miterlimit:10;stroke-dasharray:2.9826,5.9652;}
	.st6{fill:none;stroke:#000000;stroke-width:2;stroke-linecap:round;stroke-miterlimit:10;stroke-dasharray:3.0213,6.0426;}
	.st7{fill:none;stroke:#000000;stroke-width:2;stroke-linecap:round;stroke-miterlimit:10;stroke-dasharray:2.2,4.4;}
	.st8{fill:none;stroke:#000000;stroke-width:2;stroke-linecap:round;stroke-miterlimit:10;stroke-dasharray:3.0279,6.0558;}
	.st9{fill:none;stroke:#000000;stroke-width:2;stroke-linecap:round;stroke-miterlimit:10;stroke-dasharray:2.9286,5.8571;}
</style>
<g id="Graphics">
	<g id="Layer_10">
		<circle class="st0" cx="209" cy="44" r="122.1"/>
		<ellipse class="st1" cx="481.1" cy="86" rx="213.9" ry="78.2"/>
		<ellipse class="st2" cx="376.7" cy="184.4" rx="426.1" ry="90"/>
	</g>
</g>
<g id="Highlights">
	<g id="H-ARREST">
		<line class="st3" x1="750" y1="7" x2="92" y2="151.8"/>
		<line class="st3" x1="107" y1="-29" x2="92" y2="151.8"/>
		<line class="st3" x1="26" y1="169.7" x2="82" y2="151.8"/>
		<line class="st3" x1="82" y1="214" x2="82" y2="151.8"/>
		<line class="st3" x1="160.1" y1="260" x2="82" y2="151.8"/>
	</g>
	<g id="H-CHARGE">
		<line class="st3" x1="201" y1="168" x2="521" y2="-87"/>
		<line class="st3" x1="221.3" y1="151.8" x2="148" y2="-29"/>
		<line class="st3" x1="221.3" y1="168" x2="61" y2="51"/>
		<line class="st3" x1="216.1" y1="164.2" x2="61" y2="301"/>
		<line class="st3" x1="213" y1="151.8" x2="191" y2="294"/>
		<line class="st3" x1="221.3" y1="168" x2="327.5" y2="301"/>
	</g>
	<g id="H-COUNSEL">
		<line class="st3" x1="338" y1="151.8" x2="316.9" y2="68"/>
		<line class="st3" x1="322" y1="151.8" x2="248.8" y2="187.6"/>
		<line class="st3" x1="322" y1="168" x2="309" y2="235"/>
		<line class="st3" x1="338" y1="168" x2="380" y2="228"/>
		<line class="st3" x1="352.7" y1="160" x2="400.7" y2="132"/>
	</g>
	<g id="H-BAIL">
		<line class="st3" x1="525.8" y1="-29" x2="436.5" y2="106"/>
		<line class="st3" x1="451" y1="168" x2="568" y2="235"/>
	</g>
	<g id="H-SENTENCING">
		<path class="st3" d="M572,98C569,83,545.9-3,545.9-3L632,8"/>
		<line class="st3" x1="561.6" y1="146" x2="365" y2="265"/>
		<line class="st3" x1="568" y1="164.2" x2="615" y2="265"/>
		<line class="st3" x1="575" y1="151.8" x2="695" y2="232.6"/>
	</g>
	<g id="H-POSTRELEASE">
		<path class="st3" d="M677.8,106C635,5,481.2,94,481.2,94L352.7,73"/>
		<circle class="st3" cx="722.5" cy="184.4" r="38.5"/>
		<circle class="st3" cx="613.3" cy="197.7" r="51.7"/>
		<circle class="st3" cx="604.5" cy="71.5" r="60.5"/>
	</g>
</g>
<g id="Buttons">
	<g id="B-YEARLY-ADMISSIONS">
		<g>
			<polyline class="st4" points="231.7,14.1 231.7,15.6 230.2,15.6 			"/>
			<line class="st5" x1="224.2" y1="15.6" x2="164.6" y2="15.6"/>
			<polyline class="st4" points="161.6,15.6 160.1,15.6 160.1,14.1 			"/>
			<line class="st5" x1="160.1" y1="8.1" x2="160.1" y2="-51.5"/>
			<polyline class="st4" points="160.1,-54.5 160.1,-56 161.6,-56 			"/>
			<line class="st5" x1="167.6" y1="-56" x2="227.2" y2="-56"/>
			<polyline class="st4" points="230.2,-56 231.7,-56 231.7,-54.5 			"/>
			<line class="st5" x1="231.7" y1="-48.5" x2="231.7" y2="11.1"/>
		</g>
	</g>
	<g id="B-AVERAGE-DAILY-POPULATION">
		<g>
			<polyline class="st4" points="352.7,14.1 352.7,15.6 351.2,15.6 			"/>
			<line class="st5" x1="345.2" y1="15.6" x2="285.6" y2="15.6"/>
			<polyline class="st4" points="282.6,15.6 281.1,15.6 281.1,14.1 			"/>
			<line class="st5" x1="281.1" y1="8.1" x2="281.1" y2="-51.5"/>
			<polyline class="st4" points="281.1,-54.5 281.1,-56 282.6,-56 			"/>
			<line class="st5" x1="288.6" y1="-56" x2="348.2" y2="-56"/>
			<polyline class="st4" points="351.2,-56 352.7,-56 352.7,-54.5 			"/>
			<line class="st5" x1="352.7" y1="-48.5" x2="352.7" y2="11.1"/>
		</g>
	</g>
	<g id="B-AVERAGE-LOS">
		<g>
			<polyline class="st4" points="472.3,14.1 472.3,15.6 470.8,15.6 			"/>
			<line class="st5" x1="464.8" y1="15.6" x2="405.2" y2="15.6"/>
			<polyline class="st4" points="402.2,15.6 400.7,15.6 400.7,14.1 			"/>
			<line class="st5" x1="400.7" y1="8.1" x2="400.7" y2="-51.5"/>
			<polyline class="st4" points="400.7,-54.5 400.7,-56 402.2,-56 			"/>
			<line class="st5" x1="408.2" y1="-56" x2="467.8" y2="-56"/>
			<polyline class="st4" points="470.8,-56 472.3,-56 472.3,-54.5 			"/>
			<line class="st5" x1="472.3" y1="-48.5" x2="472.3" y2="11.1"/>
		</g>
	</g>
	<g id="B-ARREST">
		<g>
			<polyline class="st4" points="132.6,186.1 132.6,187.6 131.1,187.6 			"/>
			<line class="st5" x1="125.1" y1="187.6" x2="65.5" y2="187.6"/>
			<polyline class="st4" points="62.5,187.6 61,187.6 61,186.1 			"/>
			<line class="st5" x1="61" y1="180.1" x2="61" y2="120.5"/>
			<polyline class="st4" points="61,117.5 61,116 62.5,116 			"/>
			<line class="st5" x1="68.5" y1="116" x2="128.1" y2="116"/>
			<polyline class="st4" points="131.1,116 132.6,116 132.6,117.5 			"/>
			<line class="st5" x1="132.6" y1="123.5" x2="132.6" y2="183.1"/>
		</g>
	</g>
	<g id="B-CHARGE">
		<g>
			<polyline class="st4" points="248.8,186.1 248.8,187.6 247.3,187.6 			"/>
			<line class="st5" x1="241.3" y1="187.6" x2="181.7" y2="187.6"/>
			<polyline class="st4" points="178.7,187.6 177.2,187.6 177.2,186.1 			"/>
			<line class="st5" x1="177.2" y1="180.1" x2="177.2" y2="120.5"/>
			<polyline class="st4" points="177.2,117.5 177.2,116 178.7,116 			"/>
			<line class="st5" x1="184.7" y1="116" x2="244.3" y2="116"/>
			<polyline class="st4" points="247.3,116 248.8,116 248.8,117.5 			"/>
			<line class="st5" x1="248.8" y1="123.5" x2="248.8" y2="183.1"/>
		</g>
	</g>
	<g id="B-COUNSEL">
		<g>
			<polyline class="st4" points="365,186.1 365,187.6 363.5,187.6 			"/>
			<line class="st5" x1="357.5" y1="187.6" x2="297.9" y2="187.6"/>
			<polyline class="st4" points="294.9,187.6 293.4,187.6 293.4,186.1 			"/>
			<line class="st5" x1="293.4" y1="180.1" x2="293.4" y2="120.5"/>
			<polyline class="st4" points="293.4,117.5 293.4,116 294.9,116 			"/>
			<line class="st5" x1="300.9" y1="116" x2="360.5" y2="116"/>
			<polyline class="st4" points="363.5,116 365,116 365,117.5 			"/>
			<line class="st5" x1="365" y1="123.5" x2="365" y2="183.1"/>
		</g>
	</g>
	<g id="B-BAIL">
		<g>
			<polyline class="st4" points="481.2,186.1 481.2,187.6 479.7,187.6 			"/>
			<line class="st5" x1="473.7" y1="187.6" x2="414.1" y2="187.6"/>
			<polyline class="st4" points="411.1,187.6 409.6,187.6 409.6,186.1 			"/>
			<line class="st5" x1="409.6" y1="180.1" x2="409.6" y2="120.5"/>
			<polyline class="st4" points="409.6,117.5 409.6,116 411.1,116 			"/>
			<line class="st5" x1="417.1" y1="116" x2="476.7" y2="116"/>
			<polyline class="st4" points="479.7,116 481.2,116 481.2,117.5 			"/>
			<line class="st5" x1="481.2" y1="123.5" x2="481.2" y2="183.1"/>
		</g>
	</g>
	<g id="B-SENTENCING">
		<g>
			<polyline class="st4" points="597.4,186.1 597.4,187.6 595.9,187.6 			"/>
			<line class="st5" x1="589.9" y1="187.6" x2="530.3" y2="187.6"/>
			<polyline class="st4" points="527.3,187.6 525.8,187.6 525.8,186.1 			"/>
			<line class="st5" x1="525.8" y1="180.1" x2="525.8" y2="120.5"/>
			<polyline class="st4" points="525.8,117.5 525.8,116 527.3,116 			"/>
			<line class="st5" x1="533.3" y1="116" x2="592.9" y2="116"/>
			<polyline class="st4" points="595.9,116 597.4,116 597.4,117.5 			"/>
			<line class="st5" x1="597.4" y1="123.5" x2="597.4" y2="183.1"/>
		</g>
	</g>
	<g id="B-POSTRELEASE">
		<g>
			<polyline class="st4" points="713.6,186.1 713.6,187.6 712.1,187.6 			"/>
			<line class="st5" x1="706.1" y1="187.6" x2="646.5" y2="187.6"/>
			<polyline class="st4" points="643.5,187.6 642,187.6 642,186.1 			"/>
			<line class="st5" x1="642" y1="180.1" x2="642" y2="120.5"/>
			<polyline class="st4" points="642,117.5 642,116 643.5,116 			"/>
			<line class="st5" x1="649.5" y1="116" x2="709.1" y2="116"/>
			<polyline class="st4" points="712.1,116 713.6,116 713.6,117.5 			"/>
			<line class="st5" x1="713.6" y1="123.5" x2="713.6" y2="183.1"/>
		</g>
	</g>
	<g id="B-PROCESSING">
		<g>
			<polyline class="st4" points="695,49.5 695,51 693.5,51 			"/>
			<line class="st6" x1="687.5" y1="51" x2="101.3" y2="51"/>
			<polyline class="st4" points="98.3,51 96.8,51 96.8,49.5 			"/>
			<line class="st7" x1="96.8" y1="45.1" x2="96.8" y2="40.7"/>
			<polyline class="st4" points="96.8,38.5 96.8,37 98.3,37 			"/>
			<line class="st6" x1="104.3" y1="37" x2="690.5" y2="37"/>
			<polyline class="st4" points="693.5,37 695,37 695,38.5 			"/>
			<line class="st7" x1="695" y1="42.9" x2="695" y2="47.3"/>
		</g>
	</g>
	<g id="B-COMMUNITY">
		<g>
			<polyline class="st4" points="545.9,292.5 545.9,294 544.4,294 			"/>
			<line class="st8" x1="538.3" y1="294" x2="232.5" y2="294"/>
			<polyline class="st4" points="229.5,294 228,294 228,292.5 			"/>
			<line class="st9" x1="228" y1="286.6" x2="228" y2="254.4"/>
			<polyline class="st4" points="228,251.5 228,250 229.5,250 			"/>
			<line class="st8" x1="235.6" y1="250" x2="541.4" y2="250"/>
			<polyline class="st4" points="544.4,250 545.9,250 545.9,251.5 			"/>
			<line class="st9" x1="545.9" y1="257.4" x2="545.9" y2="289.6"/>
		</g>
	</g>
</g>
</svg>
