<?xml version="1.0" encoding="utf-8"?>
<!-- Generator: Adobe Illustrator 19.0.0, SVG Export Plug-In . SVG Version: 6.00 Build 0)  -->
<svg version="1.1" xmlns="http://www.w3.org/2000/svg" xmlns:xlink="http://www.w3.org/1999/xlink" x="0px" y="0px"
	 viewBox="0 0 800 300" style="enable-background:new 0 0 800 300;" xml:space="preserve">
<style type="text/css">
	.st0{fill:#FFFFFF;stroke:#000000;stroke-miterlimit:10;}
	.st1{stroke:#FFFFFF;stroke-miterlimit:10;}
	.st2{fill:none;stroke:#000000;stroke-miterlimit:10;}
</style>
<g id="Layer_1">
	<circle id="XMLID_3_" class="st0" cx="197" cy="148.1" r="34.2"/>
	<circle id="XMLID_4_" class="st0" cx="295.6" cy="148.1" r="34.2"/>
	<circle id="XMLID_5_" class="st0" cx="394.2" cy="148.1" r="34.2"/>
	<circle id="XMLID_6_" class="st1" cx="492.9" cy="148.1" r="34.2"/>
	<circle id="XMLID_7_" class="st0" cx="591.5" cy="148.1" r="34.2"/>
	<circle id="XMLID_8_" class="st0" cx="690.1" cy="148.1" r="34.2"/>
	<g id="XMLID_9_">
		<g id="XMLID_37_">
			<path id="XMLID_40_" class="st2" d="M125.5,96.6c23.2-19.1,90.3-62.1,160.1,7.7"/>
			<g id="XMLID_38_">
				<polygon id="XMLID_39_" points="132.6,101.1 117,104.3 122.1,89.2 				"/>
			</g>
		</g>
	</g>
	<g id="XMLID_10_">
		<g id="XMLID_32_">
			<path id="XMLID_35_" class="st2" d="M413.3,96.6c23.2-19.1,90.3-62.1,160.1,7.7"/>
			<g id="XMLID_33_">
				<polygon id="XMLID_34_" points="420.4,101.1 404.8,104.3 409.8,89.2 				"/>
			</g>
		</g>
	</g>
	<g id="XMLID_30_">
		<g id="XMLID_26_">
			<path id="XMLID_29_" class="st2" d="M664.8,203.6c-23.2,19.1-90.3,62.1-160.1-7.7"/>
			<g id="XMLID_27_">
				<polygon id="XMLID_28_" points="657.7,199.1 673.4,195.9 668.3,211.1 				"/>
			</g>
		</g>
	</g>
	<g id="XMLID_17_">
		<g id="XMLID_21_">
			<path id="XMLID_24_" class="st2" d="M377.1,203.6c-23.2,19.1-90.3,62.1-160.1-7.7"/>
			<g id="XMLID_22_">
				<polygon id="XMLID_23_" points="370,199.1 385.6,195.9 380.6,211.1 				"/>
			</g>
		</g>
	</g>
</g>
<g id="STEP-A">
	<circle id="XMLID_2_" class="st0" cx="98.3" cy="148.1" r="34.2"/>
</g>
</svg>
