<?xml version="1.0" encoding="utf-8"?>
<!-- Generator: Adobe Illustrator 19.0.0, SVG Export Plug-In . SVG Version: 6.00 Build 0)  -->
<svg version="1.1" xmlns="http://www.w3.org/2000/svg" xmlns:xlink="http://www.w3.org/1999/xlink" x="0px" y="0px"
	 viewBox="0 -85 800 400" style="enable-background:new 0 -85 800 400;" xml:space="preserve">
<style type="text/css">
	.st0{fill:#F9A910;}
	.st1{fill:#F997C3;}
	.st2{fill:#3897C3;}
	.st3{fill:none;stroke:#F930D0;stroke-width:7;stroke-linecap:round;stroke-miterlimit:10;stroke-dasharray:3,6;}
	.st4{opacity:0.1;}
</style>
<g id="Graphics">
	<g id="Layer_10">
		<circle class="st0" cx="209" cy="44" r="122.1"/>
		<ellipse class="st1" cx="481.1" cy="86" rx="213.9" ry="78.2"/>
		<ellipse class="st2" cx="376.7" cy="184.4" rx="426.1" ry="90"/>
	</g>
</g>
<g id="Highlights">
	<g id="H-ARREST">
		<line class="st3" x1="750" y1="7" x2="92" y2="151.8"/>
		<line class="st3" x1="107" y1="-29" x2="92" y2="151.8"/>
		<line class="st3" x1="26" y1="169.7" x2="82" y2="151.8"/>
		<line class="st3" x1="82" y1="214" x2="82" y2="151.8"/>
		<line class="st3" x1="160.1" y1="260" x2="82" y2="151.8"/>
	</g>
	<g id="H-CHARGE">
		<line class="st3" x1="201" y1="168" x2="521" y2="-87"/>
		<line class="st3" x1="221.3" y1="151.8" x2="148" y2="-29"/>
		<line class="st3" x1="221.3" y1="168" x2="61" y2="51"/>
		<line class="st3" x1="216.1" y1="164.2" x2="61" y2="301"/>
		<line class="st3" x1="213" y1="151.8" x2="191" y2="294"/>
		<line class="st3" x1="221.3" y1="168" x2="327.5" y2="301"/>
	</g>
	<g id="H-COUNSEL">
		<line class="st3" x1="338" y1="151.8" x2="316.9" y2="68"/>
		<line class="st3" x1="322" y1="151.8" x2="248.8" y2="187.6"/>
		<line class="st3" x1="322" y1="168" x2="309" y2="235"/>
		<line class="st3" x1="338" y1="168" x2="380" y2="228"/>
		<line class="st3" x1="352.7" y1="160" x2="400.7" y2="132"/>
	</g>
	<g id="H-BAIL">
		<line class="st3" x1="525.8" y1="-29" x2="436.5" y2="106"/>
		<line class="st3" x1="451" y1="168" x2="568" y2="235"/>
	</g>
	<g id="H-SENTENCING">
		<path class="st3" d="M572,98C569,83,545.9-3,545.9-3L632,8"/>
		<line class="st3" x1="561.6" y1="146" x2="365" y2="265"/>
		<line class="st3" x1="568" y1="164.2" x2="615" y2="265"/>
		<line class="st3" x1="575" y1="151.8" x2="695" y2="232.6"/>
	</g>
	<g id="H-POSTRELEASE">
		<path class="st3" d="M677.8,106C635,5,481.2,94,481.2,94L352.7,73"/>
		<circle class="st3" cx="722.5" cy="184.4" r="38.5"/>
		<circle class="st3" cx="613.3" cy="197.7" r="51.7"/>
		<circle class="st3" cx="604.5" cy="71.5" r="60.5"/>
	</g>
	<g id="H-AVERAGE-LOS">
		<g>
			<line class="st3" x1="436.5" y1="-3" x2="575" y2="-40"/>
			<line class="st3" x1="421" y1="-36" x2="160.1" y2="-67.9"/>
			<line class="st3" x1="421" y1="-20.2" x2="309" y2="71.5"/>
			<line class="st3" x1="437.2" y1="-20.2" x2="456.9" y2="71.5"/>
		</g>
	</g>
</g>
<g id="Buttons">
	<rect id="B-YEARLY-ADMISSIONS" x="160.1" y="-56" class="st4" width="71.6" height="71.6"/>
	<rect id="B-AVERAGE-DAILY-POPULATION" x="281.1" y="-56" class="st4" width="71.6" height="71.6"/>
	<rect id="B-AVERAGE-LOS" x="400.7" y="-56" class="st4" width="71.6" height="71.6"/>
	<rect id="B-ARREST" x="61" y="116" class="st4" width="71.6" height="71.6"/>
	<rect id="B-CHARGE" x="177.2" y="116" class="st4" width="71.6" height="71.6"/>
	<rect id="B-COUNSEL" x="293.4" y="116" class="st4" width="71.6" height="71.6"/>
	<rect id="B-BAIL" x="409.6" y="116" class="st4" width="71.6" height="71.6"/>
	<rect id="B-SENTENCING" x="525.8" y="116" class="st4" width="71.6" height="71.6"/>
	<rect id="B-POSTRELEASE" x="642" y="116" class="st4" width="71.6" height="71.6"/>
	<rect id="B-PROCESSING" x="96.8" y="37" class="st4" width="598.2" height="14"/>
	<rect id="B-COMMUNITY" x="228" y="250" class="st4" width="317.9" height="44"/>
</g>
</svg>
